<svg xmlns="http://www.w3.org/2000/svg" viewBox="0 0 100 100">
  <!-- Lotus petals -->
  <g fill="#FF9933" opacity="0.9">
    <!-- Outer petals -->
    <path d="M50,10 C60,10 70,15 75,25 C80,35 80,45 75,55 C70,65 60,70 50,70 C40,70 30,65 25,55 C20,45 20,35 25,25 C30,15 40,10 50,10 Z" />
    <path d="M50,10 C60,10 70,15 75,25 C80,35 80,45 75,55 C70,65 60,70 50,70 C40,70 30,65 25,55 C20,45 20,35 25,25 C30,15 40,10 50,10 Z" transform="rotate(45, 50, 50)" />
    <path d="M50,10 C60,10 70,15 75,25 C80,35 80,45 75,55 C70,65 60,70 50,70 C40,70 30,65 25,55 C20,45 20,35 25,25 C30,15 40,10 50,10 Z" transform="rotate(90, 50, 50)" />
    <path d="M50,10 C60,10 70,15 75,25 C80,35 80,45 75,55 C70,65 60,70 50,70 C40,70 30,65 25,55 C20,45 20,35 25,25 C30,15 40,10 50,10 Z" transform="rotate(135, 50, 50)" />
    <path d="M50,10 C60,10 70,15 75,25 C80,35 80,45 75,55 C70,65 60,70 50,70 C40,70 30,65 25,55 C20,45 20,35 25,25 C30,15 40,10 50,10 Z" transform="rotate(180, 50, 50)" />
    <path d="M50,10 C60,10 70,15 75,25 C80,35 80,45 75,55 C70,65 60,70 50,70 C40,70 30,65 25,55 C20,45 20,35 25,25 C30,15 40,10 50,10 Z" transform="rotate(225, 50, 50)" />
    <path d="M50,10 C60,10 70,15 75,25 C80,35 80,45 75,55 C70,65 60,70 50,70 C40,70 30,65 25,55 C20,45 20,35 25,25 C30,15 40,10 50,10 Z" transform="rotate(270, 50, 50)" />
    <path d="M50,10 C60,10 70,15 75,25 C80,35 80,45 75,55 C70,65 60,70 50,70 C40,70 30,65 25,55 C20,45 20,35 25,25 C30,15 40,10 50,10 Z" transform="rotate(315, 50, 50)" />
    
    <!-- Inner petals -->
    <path d="M50,25 C55,25 60,27 62,32 C64,37 64,42 62,47 C60,52 55,54 50,54 C45,54 40,52 38,47 C36,42 36,37 38,32 C40,27 45,25 50,25 Z" />
    <path d="M50,25 C55,25 60,27 62,32 C64,37 64,42 62,47 C60,52 55,54 50,54 C45,54 40,52 38,47 C36,42 36,37 38,32 C40,27 45,25 50,25 Z" transform="rotate(45, 50, 50)" />
    <path d="M50,25 C55,25 60,27 62,32 C64,37 64,42 62,47 C60,52 55,54 50,54 C45,54 40,52 38,47 C36,42 36,37 38,32 C40,27 45,25 50,25 Z" transform="rotate(90, 50, 50)" />
    <path d="M50,25 C55,25 60,27 62,32 C64,37 64,42 62,47 C60,52 55,54 50,54 C45,54 40,52 38,47 C36,42 36,37 38,32 C40,27 45,25 50,25 Z" transform="rotate(135, 50, 50)" />
    <path d="M50,25 C55,25 60,27 62,32 C64,37 64,42 62,47 C60,52 55,54 50,54 C45,54 40,52 38,47 C36,42 36,37 38,32 C40,27 45,25 50,25 Z" transform="rotate(180, 50, 50)" />
    <path d="M50,25 C55,25 60,27 62,32 C64,37 64,42 62,47 C60,52 55,54 50,54 C45,54 40,52 38,47 C36,42 36,37 38,32 C40,27 45,25 50,25 Z" transform="rotate(225, 50, 50)" />
    <path d="M50,25 C55,25 60,27 62,32 C64,37 64,42 62,47 C60,52 55,54 50,54 C45,54 40,52 38,47 C36,42 36,37 38,32 C40,27 45,25 50,25 Z" transform="rotate(270, 50, 50)" />
    <path d="M50,25 C55,25 60,27 62,32 C64,37 64,42 62,47 C60,52 55,54 50,54 C45,54 40,52 38,47 C36,42 36,37 38,32 C40,27 45,25 50,25 Z" transform="rotate(315, 50, 50)" />
  </g>
  
  <!-- Center of the lotus -->
  <circle cx="50" cy="50" r="10" fill="#FFCC00" />
</svg> 